<?xml version="1.0" encoding="UTF-8" standalone="no"?>
<!-- Created with Inkscape (http://www.inkscape.org/) -->

<svg
   width="210mm"
   height="297mm"
   viewBox="0 0 210 297"
   version="1.1"
   id="svg1392"
   xml:space="preserve"
   inkscape:version="1.2.2 (b0a8486541, 2022-12-01)"
   sodipodi:docname="drawing_graph_for_the_cloud.svg"
   xmlns:inkscape="http://www.inkscape.org/namespaces/inkscape"
   xmlns:sodipodi="http://sodipodi.sourceforge.net/DTD/sodipodi-0.dtd"
   xmlns:xlink="http://www.w3.org/1999/xlink"
   xmlns="http://www.w3.org/2000/svg"
   xmlns:svg="http://www.w3.org/2000/svg"><sodipodi:namedview
     id="namedview1394"
     pagecolor="#ffffff"
     bordercolor="#000000"
     borderopacity="0.25"
     inkscape:showpageshadow="2"
     inkscape:pageopacity="0.0"
     inkscape:pagecheckerboard="0"
     inkscape:deskcolor="#d1d1d1"
     inkscape:document-units="mm"
     showgrid="false"
     showguides="true"
     inkscape:zoom="0.7180275"
     inkscape:cx="396.22438"
     inkscape:cy="561.25984"
     inkscape:window-width="1920"
     inkscape:window-height="1008"
     inkscape:window-x="0"
     inkscape:window-y="0"
     inkscape:window-maximized="1"
     inkscape:current-layer="layer1"><sodipodi:guide
       position="36.338369,176.45686"
       orientation="1,0"
       id="guide5900"
       inkscape:locked="false" /></sodipodi:namedview><defs
     id="defs1389"><rect
       x="574.12086"
       y="868.72542"
       width="1408.6433"
       height="912.74742"
       id="rect4660" /><clipPath
       clipPathUnits="userSpaceOnUse"
       id="clipPath1367"><rect
         style="opacity:0.536793;fill:#f2f2f2;stroke:#800080;stroke-width:0;stroke-linecap:round;stroke-linejoin:round"
         id="rect1369"
         width="141.26399"
         height="77.789001"
         x="40.392063"
         y="48.616467" /></clipPath><clipPath
       clipPathUnits="userSpaceOnUse"
       id="clipPath1019"><rect
         style="opacity:0.438404;fill:#ff0000;stroke:#800080;stroke-width:0;stroke-linecap:round;stroke-linejoin:round"
         id="rect1021"
         width="37.376099"
         height="20.581671"
         x="-149.76935"
         y="68.818092"
         ry="0"
         transform="scale(-1,1)" /></clipPath><clipPath
       clipPathUnits="userSpaceOnUse"
       id="clipPath3480"><rect
         style="opacity:0.536793;fill:#f2f2f2;stroke:#800080;stroke-width:0;stroke-linecap:round;stroke-linejoin:round"
         id="rect3482"
         width="345.79999"
         height="138.677"
         x="-10.320312"
         y="40.664146" /></clipPath><clipPath
       id="c0"><path
         d="m0,0l2604.33,0l0,2604.33l-2604.33,0l0,-2604.33"
         id="path3682" /></clipPath><clipPath
       id="c1"><path
         d="m295.15,260.43l2048.74,0l0,2083.46l-2048.74,0l0,-2083.46"
         id="path3685" /></clipPath><clipPath
       id="c2"><path
         d="m390.35,331.83l173.62,0l0,47.6l-173.62,0l0,-47.6"
         id="path3688" /></clipPath><clipPath
       id="c3"><path
         d="m390.35,379.43l173.62,0l0,47.6l-173.62,0l0,-47.6"
         id="path3691" /></clipPath><clipPath
       id="c0-9"><path
         d="m0,0l2604.33,0l0,2604.33l-2604.33,0l0,-2604.33"
         id="path6084" /></clipPath><clipPath
       id="c1-0"><path
         d="m295.15,260.43l2048.74,0l0,2083.46l-2048.74,0l0,-2083.46"
         id="path6087" /></clipPath><clipPath
       id="c2-9"><path
         d="m356.25,309.8l42.87,0l0,61.1l-42.87,0l0,-61.1"
         id="path6090" /></clipPath><clipPath
       id="c3-1"><path
         d="m356.25,370.9l42.87,0l0,61.1l-42.87,0l0,-61.1"
         id="path6093" /></clipPath><clipPath
       id="c0-1"><path
         d="m0,0l2604.33,0l0,2604.33l-2604.33,0l0,-2604.33"
         id="path6500" /></clipPath><clipPath
       id="c1-1"><path
         d="m295.15,260.43l2048.74,0l0,2083.46l-2048.74,0l0,-2083.46"
         id="path6503" /></clipPath><clipPath
       id="c2-5"><path
         d="m295.15,340.35l42.87,0l0,61.1l-42.87,0l0,-61.1"
         id="path6506" /></clipPath><clipPath
       id="c3-9"><path
         d="m295.15,401.45l42.87,0l0,61.1l-42.87,0l0,-61.1"
         id="path6509" /></clipPath></defs><g
     inkscape:label="Layer 1"
     inkscape:groupmode="layer"
     id="layer1"><text
       xml:space="preserve"
       transform="scale(0.26458333)"
       id="text4658"
       style="font-style:normal;font-variant:normal;font-weight:bold;font-stretch:normal;font-size:37.3333px;font-family:'Times New Roman';-inkscape-font-specification:'Times New Roman,  Bold';white-space:pre;shape-inside:url(#rect4660);display:inline;opacity:1;fill:#000000;stroke:#800080;stroke-width:0;stroke-linecap:round;stroke-linejoin:round"><tspan
         sodipodi:role="line"
         id="tspan4662"></tspan></text><g
       id="g6801"
       transform="matrix(0.96656184,0,0,0.95405341,29.448732,11.925236)"
       inkscape:export-filename="g6801.png"
       inkscape:export-xdpi="96"
       inkscape:export-ydpi="96"><text
         xml:space="preserve"
         style="font-style:normal;font-variant:normal;font-weight:bold;font-stretch:normal;font-size:7.457px;font-family:'Times New Roman';-inkscape-font-specification:'Times New Roman,  Bold';fill:#000000;stroke:#800080;stroke-width:0;stroke-linecap:round;stroke-linejoin:round"
         x="35.381512"
         y="168.75813"
         id="text4652"
         transform="scale(1.0189666,0.9813864)"><tspan
           sodipodi:role="line"
           id="tspan4650"
           style="font-size:7.457px;stroke-width:0"
           x="35.381512"
           y="168.75813">Job Title (See corresponding table on left.)</tspan></text><text
         xml:space="preserve"
         style="font-style:normal;font-variant:normal;font-weight:bold;font-stretch:normal;font-size:7.457px;font-family:'Times New Roman';-inkscape-font-specification:'Times New Roman,  Bold';fill:#000000;stroke:#800080;stroke-width:0;stroke-linecap:round;stroke-linejoin:round"
         x="-136.48912"
         y="35.521252"
         id="text4656"
         transform="matrix(0,-0.98138643,1.0189666,0,0,0)"><tspan
           sodipodi:role="line"
           id="tspan4654"
           style="font-size:7.457px;stroke-width:0"
           x="-136.48912"
           y="35.521252">Total Job Listings /Average Salary</tspan></text><text
         xml:space="preserve"
         style="font-style:normal;font-variant:normal;font-weight:bold;font-stretch:normal;font-size:7.457px;font-family:'Times New Roman';-inkscape-font-specification:'Times New Roman,  Bold';letter-spacing:3.59535px;fill:#000000;stroke:#800080;stroke-width:0;stroke-linecap:round;stroke-linejoin:round"
         x="61.250568"
         y="158.94952"
         id="text5754"
         transform="scale(1.0228633,0.97764779)"><tspan
           id="tspan5752"
           style="stroke-width:0"
           x="61.250568"
           y="158.94952"
           sodipodi:role="line">1 2 3 4 5 6 7 8</tspan></text><g
         stroke-linejoin="bevel"
         stroke-linecap="square"
         stroke="#000000"
         fill-rule="evenodd"
         id="g6637"
         transform="matrix(0.05462806,0,0,0.05462806,38.392581,12.325178)"><g
           clip-path="url(#c0-1)"
           id="g6518"><g
             fill="#ffffff"
             stroke-width="3.06"
             id="g6516"><path
               d="M 295.15,260.43 H 2343.89 V 2343.89 H 295.15 V 260.43"
               id="path6514" /></g></g><g
           clip-path="url(#c1-1)"
           id="g6524"><g
             fill="none"
             stroke="#808080"
             stroke-dasharray="3.06, 6.12"
             stroke-width="3.06"
             id="g6522"><path
               d="M 485.73,260.43 V 2343.89 M 723.96,260.43 V 2343.89 M 962.18,260.43 V 2343.89 M 1200.41,260.43 V 2343.89 M 1438.64,260.43 V 2343.89 M 1676.86,260.43 V 2343.89 M 1915.09,260.43 V 2343.89 M 2153.31,260.43 v 2083.46"
               id="path6520" /></g></g><g
           clip-path="url(#c0-1)"
           id="g6530"><g
             fill="#ffffff"
             stroke="none"
             stroke-width="0.1"
             id="g6528"><path
               d="m 295.15,340.35 h 1235.32 v 122.2 H 295.15 v -122.2"
               id="path6526" /></g></g><g
           clip-path="url(#c2-5)"
           id="g6545"><g
             fill="none"
             stroke="#377eb8"
             stroke-linecap="butt"
             stroke-width="3.06"
             id="g6534"><path
               d="m 316.59,370.9 v 0"
               id="path6532" /></g><g
             fill="none"
             stroke="#377eb8"
             stroke-width="61.25"
             id="g6538"><path
               d="m 295.15,370.9 h 42.87"
               id="path6536" /></g><g
             fill="#377eb8"
             stroke-linejoin="miter"
             stroke-width="3.06"
             id="g6543"><g
               transform="translate(316.59,370.9)"
               id="g6541"><path
                 d="M 49,0 C 49,27.06 27.07,49 0,49 -27.06,49 -49,27.07 -49,0 c 0,-27.06 21.93,-49 49,-49 27.06,0 49,21.93 49,49"
                 id="p0-7" /></g></g></g><g
           fill="none"
           stroke-width="0.1"
           id="g6551"><g
             stroke="none"
             fill="#000000"
             fill-opacity="1"
             font-family="'Times New Roman'"
             font-size="55.125px"
             font-weight="bold"
             id="g6549"><text
               x="399.13"
               y="389.45001"
               textLength="851.01001"
               id="text6547"
               lengthAdjust="spacing">AVERAGE SALARY BY JOB TITLE</text></g></g><g
           clip-path="url(#c3-9)"
           id="g6561"><g
             fill="none"
             stroke="#e41a1c"
             stroke-linecap="butt"
             stroke-width="3.06"
             id="g6555"><path
               d="m 316.59,432 v 0"
               id="path6553" /></g><g
             fill="none"
             stroke="#e41a1c"
             stroke-width="24.5"
             id="g6559"><path
               d="m 295.15,432 h 42.87"
               id="path6557" /></g></g><g
           fill="none"
           stroke-width="0.1"
           id="g6567"><g
             stroke="none"
             fill="#000000"
             fill-opacity="1"
             font-family="'Times New Roman'"
             font-size="55.125px"
             font-weight="bold"
             id="g6565"><text
               x="399.13"
               y="450.54999"
               textLength="1131.24"
               id="text6563"
               lengthAdjust="spacing">TOTAL NUMBER OF LISTINGS BY JOB TITLE</text></g></g><g
           clip-path="url(#c1-1)"
           id="g6595"><g
             fill="none"
             stroke="#377eb8"
             stroke-width="61.25"
             id="g6571"><polyline
               fill="none"
               points="485.73,1506.95 723.96,1768.27 962.18,1718.33 1200.41,1738.56 1438.64,1688.39 1676.86,1597.21 1915.09,1754.39 2153.31,1776.21"
               id="polyline6569" /></g><g
             fill="#377eb8"
             stroke-linejoin="miter"
             stroke-width="3.06"
             id="g6589"><use
               xlink:href="#p0-7"
               x="485.73001"
               y="1506.95"
               id="use6573" /><use
               xlink:href="#p0-7"
               x="723.96002"
               y="1768.27"
               id="use6575" /><use
               xlink:href="#p0-7"
               x="962.17999"
               y="1718.33"
               id="use6577" /><use
               xlink:href="#p0-7"
               x="1200.41"
               y="1738.5601"
               id="use6579" /><use
               xlink:href="#p0-7"
               x="1438.64"
               y="1688.39"
               id="use6581" /><use
               xlink:href="#p0-7"
               x="1676.86"
               y="1597.21"
               id="use6583" /><use
               xlink:href="#p0-7"
               x="1915.09"
               y="1754.39"
               id="use6585" /><use
               xlink:href="#p0-7"
               x="2153.3101"
               y="1776.21"
               id="use6587" /></g><g
             fill="none"
             stroke="#e41a1c"
             stroke-width="24.5"
             id="g6593"><polyline
               fill="none"
               points="485.73,1679.12 723.96,1979.82 962.18,2095.2 1200.41,1291.73 1438.64,1028.69 1676.86,260.43 1915.09,2258.29 2153.31,1803.51"
               id="polyline6591" /></g></g><g
           clip-path="url(#c0-1)"
           id="g6635"><g
             fill="none"
             stroke-linecap="butt"
             stroke-width="3.06"
             id="g6603"><path
               d="M 295.15,2343.89 V 260.43"
               id="path6597" /><path
               d="m 295.15,2343.89 h 18.37 m -18.37,-95.65 h 18.37 m -18.37,-95.65 h 18.37 m -18.37,-95.65 h 18.37 m -18.37,-95.65 h 18.37 m -18.37,-95.65 h 18.37 m -18.37,-95.65 h 18.37 m -18.37,-95.65 h 18.37 m -18.37,-95.66 h 18.37 m -18.37,-95.65 h 18.37 m -18.37,-95.65 h 18.37 m -18.37,-95.65 h 18.37 m -18.37,-95.65 h 18.37 m -18.37,-95.65 h 18.37 m -18.37,-95.65 h 18.37 m -18.37,-95.65 h 18.37 m -18.37,-95.65 h 18.37 m -18.37,-95.65 h 18.37 m -18.37,-95.65 h 18.37 m -18.37,-95.66 h 18.37 m -18.37,-95.65 h 18.37 m -18.37,-95.65 h 18.37"
               id="path6599" /><path
               d="M 295.15,2343.89 H 331.9 M 295.15,1865.64 H 331.9 M 295.15,1387.38 H 331.9 M 295.15,909.13 H 331.9 M 295.15,430.87 h 36.75"
               id="path6601" /></g><g
             fill="none"
             stroke-width="0.1"
             id="g6617"><g
               stroke="none"
               fill="#000000"
               fill-opacity="1"
               font-family="'Times New Roman'"
               font-size="85.75px"
               id="g6615"><text
                 x="230.05"
                 y="2373.4399"
                 textLength="42.900002"
                 id="text6605"
                 lengthAdjust="spacing">0</text><text
                 x="101.35"
                 y="1895.1899"
                 textLength="171.60001"
                 id="text6607"
                 lengthAdjust="spacing">100k</text><text
                 x="101.35"
                 y="1416.9301"
                 textLength="171.60001"
                 id="text6609"
                 lengthAdjust="spacing">200k</text><text
                 x="101.35"
                 y="938.67999"
                 textLength="171.60001"
                 id="text6611"
                 lengthAdjust="spacing">300k</text><text
                 x="101.35"
                 y="460.42001"
                 textLength="171.60001"
                 id="text6613"
                 lengthAdjust="spacing">400k</text></g></g><g
             fill="none"
             stroke-linecap="butt"
             stroke-width="3.06"
             id="g6633"><path
               d="M 2343.89,2343.89 V 260.43"
               id="path6619" /><path
               d="m 2343.89,2343.89 h -18.37 m 18.37,-95.65 h -18.37 m 18.37,-95.65 h -18.37 m 18.37,-95.65 h -18.37 m 18.37,-95.65 h -18.37 m 18.37,-95.65 h -18.37 m 18.37,-95.65 h -18.37 m 18.37,-95.65 h -18.37 m 18.37,-95.66 h -18.37 m 18.37,-95.65 h -18.37 m 18.37,-95.65 h -18.37 m 18.37,-95.65 h -18.37 m 18.37,-95.65 h -18.37 m 18.37,-95.65 h -18.37 m 18.37,-95.65 h -18.37 m 18.37,-95.65 h -18.37 m 18.37,-95.65 h -18.37 m 18.37,-95.65 h -18.37 m 18.37,-95.65 h -18.37 m 18.37,-95.66 h -18.37 m 18.37,-95.65 h -18.37 m 18.37,-95.65 h -18.37"
               id="path6621" /><path
               d="m 2343.89,2343.89 h -36.75 m 36.75,-478.25 h -36.75 m 36.75,-478.26 h -36.75 m 36.75,-478.25 h -36.75 m 36.75,-478.26 h -36.75"
               id="path6623" /><path
               d="M 295.15,2343.89 H 2343.89"
               id="path6625" /><path
               d="m 366.62,2343.89 v -18.37 m 119.11,18.37 v -18.37 m 119.12,18.37 v -18.37 m 119.11,18.37 v -18.37 m 119.11,18.37 v -18.37 m 119.11,18.37 v -18.37 m 119.12,18.37 v -18.37 m 119.11,18.37 v -18.37 m 119.11,18.37 v -18.37 m 119.12,18.37 v -18.37 m 119.11,18.37 v -18.37 m 119.11,18.37 v -18.37 m 119.11,18.37 v -18.37 m 119.12,18.37 v -18.37 m 119.11,18.37 v -18.37 m 119.11,18.37 v -18.37 m 119.12,18.37 v -18.37"
               id="path6627" /><path
               d="M 295.15,260.43 H 2343.89"
               id="path6629" /><path
               d="m 366.62,260.43 v 18.37 m 119.11,-18.37 v 18.37 m 119.12,-18.37 v 18.37 m 119.11,-18.37 v 18.37 m 119.11,-18.37 v 18.37 m 119.11,-18.37 v 18.37 m 119.12,-18.37 v 18.37 m 119.11,-18.37 v 18.37 m 119.11,-18.37 v 18.37 m 119.12,-18.37 v 18.37 m 119.11,-18.37 v 18.37 m 119.11,-18.37 v 18.37 m 119.11,-18.37 v 18.37 m 119.12,-18.37 v 18.37 m 119.11,-18.37 v 18.37 m 119.11,-18.37 v 18.37 m 119.12,-18.37 v 18.37"
               id="path6631" /></g></g></g></g></g></svg>
